<?xml version="1.0" standalone="no"?>
<!DOCTYPE svg PUBLIC "-//W3C//DTD SVG 20010904//EN"
 "http://www.w3.org/TR/2001/REC-SVG-20010904/DTD/svg10.dtd">
<svg version="1.0" xmlns="http://www.w3.org/2000/svg"
 viewBox="170 370 700 280"
 preserveAspectRatio="xMidYMid meet">

<g transform="translate(0.000000,1024.000000) scale(0.100000,-0.100000)"
fill="#ffffff" stroke="none">
<path d="M2744 6328 c-9 -17 -18 -62 -21 -100 l-5 -69 148 3 148 3 52 90 c29
50 53 93 54 98 0 4 -81 7 -180 7 l-179 0 -17 -32z"/>
<path d="M1946 6088 c-2 -7 -9 -53 -14 -103 -6 -49 -35 -286 -66 -525 -30
-239 -75 -604 -100 -810 -26 -206 -49 -392 -52 -413 l-6 -38 108 3 108 3 17
165 c9 91 20 189 24 218 l7 52 114 0 c63 0 114 -2 114 -4 0 -2 11 -97 25 -212
14 -115 25 -212 25 -216 0 -5 50 -8 110 -8 61 0 110 3 110 8 0 26 -130 1006
-205 1550 -25 177 -45 327 -45 332 0 16 -270 13 -274 -2z m163 -495 c6 -65 18
-206 26 -313 9 -107 22 -251 29 -320 8 -69 13 -126 11 -128 -1 -1 -45 -1 -97
0 l-94 3 32 275 c17 151 40 348 49 438 10 89 21 162 25 162 4 0 12 -53 19
-117z"/>
<path d="M2640 6098 c0 -2 -2 -354 -4 -783 -2 -429 -7 -855 -12 -947 l-7 -168
110 0 110 0 22 113 c45 227 237 1057 247 1066 4 3 4 -23 1 -59 -12 -119 -20
-763 -12 -942 l7 -178 115 0 114 0 -5 43 c-17 134 -28 767 -23 1285 l6 573
-106 -3 -106 -3 -18 -105 c-15 -87 -155 -714 -204 -910 -12 -49 -13 7 -14 483
l-1 537 -110 0 c-60 0 -110 -1 -110 -2z"/>
<path d="M3950 6000 l0 -100 115 0 115 0 0 -850 0 -850 110 0 110 0 0 850 0
850 115 0 115 0 0 100 0 100 -340 0 -340 0 0 -100z"/>
<path d="M4822 5543 c2 -307 -1 -735 -5 -950 l-9 -393 109 0 108 0 27 138 c22
112 75 348 231 1027 9 37 7 -107 -4 -395 -6 -161 -8 -391 -4 -527 l7 -243 114
0 114 0 0 38 c0 20 -7 188 -16 372 -12 265 -14 455 -9 913 l7 577 -104 0 -104
0 -12 -87 c-10 -74 -95 -456 -197 -888 l-24 -100 0 538 -1 537 -116 0 -115 0
3 -557z"/>
<path d="M5680 6000 l0 -100 110 0 110 0 0 -850 0 -850 110 0 110 0 0 850 0
850 115 0 115 0 0 100 0 100 -335 0 -335 0 0 -100z"/>
<path d="M6484 6083 c3 -10 17 -97 31 -193 47 -319 83 -522 165 -913 44 -213
80 -398 80 -410 0 -13 -7 -46 -15 -74 -20 -69 -61 -103 -121 -103 l-44 0 0
-96 0 -97 73 6 c185 14 250 72 297 270 17 69 152 807 260 1422 17 94 32 178
34 188 4 15 -6 17 -109 17 l-112 0 -7 -62 c-11 -115 -137 -1043 -143 -1058 -3
-8 -16 75 -29 185 -12 110 -36 295 -54 410 -49 330 -60 416 -60 473 l0 52
-126 0 c-115 0 -125 -1 -120 -17z"/>
<path d="M7440 6097 c0 -2 -2 -53 -4 -113 -3 -60 -8 -329 -11 -599 -6 -467
-26 -879 -44 -927 -14 -36 -46 -59 -90 -65 -40 -6 -41 -6 -41 -47 0 -22 3 -65
7 -95 l6 -54 85 6 c209 15 251 95 271 522 6 110 13 385 16 610 3 226 8 445 11
488 l6 77 79 0 79 0 0 -850 0 -850 112 0 111 0 -6 128 c-4 70 -7 497 -7 950
l0 822 -290 0 c-159 0 -290 -2 -290 -3z"/>
<path d="M3520 5120 l0 -100 205 0 205 0 0 100 0 100 -205 0 -205 0 0 -100z"/>
</g>
</svg>
